<?xml version="1.0" encoding="utf-8"?>
<!-- Generator: Adobe Illustrator 25.2.0, SVG Export Plug-In . SVG Version: 6.00 Build 0)  -->
<svg version="1.1" id="Layer_1" xmlns="http://www.w3.org/2000/svg" xmlns:xlink="http://www.w3.org/1999/xlink" x="0px" y="0px"
	 viewBox="0 0 150 150" style="enable-background:new 0 0 150 150;" xml:space="preserve">
<style type="text/css">
	.st0{fill:#3F4D50;}
	.st1{fill:#2F383A;}
	.st2{fill:#E6E6E5;}
	.st3{fill:#DA4643;}
	.st4{fill:#F39225;}
</style>
<g>
	<g>
		<path class="st0" d="M558.89,75.3c0,267.44-216.75,484.26-484.23,484.26c-267.4,0-484.23-216.81-484.23-484.26
			c0-267.45,216.82-484.27,484.23-484.27C342.15-408.96,558.89-192.14,558.89,75.3z"/>
	</g>
</g>
<g>
	<path class="st0" d="M-343.38,319.75c-1.31-2.23-2.6-4.48-3.88-6.73C-345.98,315.28-344.69,317.52-343.38,319.75z"/>
	<path class="st0" d="M-350.39,307.42c-0.8-1.46-1.58-2.93-2.36-4.4C-351.97,304.49-351.19,305.96-350.39,307.42z"/>
	<path class="st0" d="M-310.48,368.79c-1.25-1.64-2.51-3.29-3.75-4.95C-312.99,365.5-311.74,367.14-310.48,368.79z"/>
	<path class="st0" d="M-316.49,360.74c-2.23-3.05-4.42-6.12-6.57-9.22C-320.91,354.62-318.72,357.69-316.49,360.74z"/>
	<path class="st0" d="M-325.76,347.63c-1.07-1.57-2.12-3.16-3.18-4.74C-327.88,344.48-326.83,346.06-325.76,347.63z"/>
	<path class="st0" d="M-331.64,338.78c-1.02-1.56-2.03-3.13-3.02-4.71C-333.67,335.65-332.66,337.22-331.64,338.78z"/>
	<path class="st0" d="M-337.39,329.71c-0.95-1.53-1.9-3.06-2.83-4.6C-339.29,326.65-338.34,328.18-337.39,329.71z"/>
	<path class="st0" d="M-355.43,297.94c-0.77-1.49-1.54-2.98-2.29-4.48C-356.97,294.96-356.2,296.45-355.43,297.94z"/>
	<path class="st0" d="M-383.21,233.19c-0.36-1.03-0.73-2.06-1.08-3.1C-383.94,231.13-383.57,232.16-383.21,233.19z"/>
	<path class="st0" d="M-379.18,244.43c-0.51-1.37-1.02-2.74-1.52-4.12C-380.2,241.69-379.69,243.06-379.18,244.43z"/>
	<path class="st0" d="M-375.19,254.77c-0.56-1.41-1.12-2.83-1.67-4.25C-376.31,251.93-375.76,253.35-375.19,254.77z"/>
	<path class="st0" d="M-365.48,277.39c-0.58-1.27-1.17-2.53-1.75-3.8C-366.65,274.86-366.06,276.12-365.48,277.39z"/>
	<path class="st0" d="M-360.35,288.17c-0.7-1.43-1.41-2.87-2.1-4.31C-361.76,285.3-361.06,286.73-360.35,288.17z"/>
	<path class="st0" d="M-371.06,264.81c-0.56-1.32-1.1-2.64-1.65-3.96C-372.16,262.17-371.62,263.49-371.06,264.81z"/>
	<path class="st0" d="M-160.55,498.64c-10.53-5.86-20.81-12.11-30.84-18.71C-181.36,486.54-171.08,492.78-160.55,498.64z"/>
	<path class="st0" d="M-192.68,479.08c-2.27-1.5-4.52-3.03-6.76-4.57C-197.21,476.05-194.95,477.57-192.68,479.08z"/>
	<path class="st0" d="M-200.88,473.51c-9.65-6.69-19.04-13.72-28.16-21.07C-219.92,459.79-210.53,466.82-200.88,473.51z"/>
	<path class="st0" d="M-152.09,503.25c-2.52-1.34-5.03-2.7-7.53-4.08C-157.12,500.55-154.61,501.91-152.09,503.25z"/>
	<path class="st0" d="M-109.12,523.42c-2.73-1.12-5.44-2.26-8.14-3.43C-114.57,521.16-111.85,522.3-109.12,523.42z"/>
	<path class="st0" d="M-304.05,377.04c-1.3-1.63-2.59-3.26-3.86-4.9C-306.63,373.78-305.34,375.42-304.05,377.04z"/>
	<path class="st0" d="M-230.63,451.16c-1.98-1.61-3.94-3.23-5.89-4.87C-234.56,447.93-232.6,449.55-230.63,451.16z"/>
	<path class="st0" d="M-117.69,519.81c-11.32-4.91-22.42-10.24-33.28-15.97C-140.11,509.57-129.01,514.9-117.69,519.81z"/>
	<path class="st0" d="M-279.78,405.17c-5.25-5.63-10.36-11.4-15.34-17.28C-290.14,393.78-285.03,399.54-279.78,405.17z"/>
	<path class="st0" d="M-272.89,412.43c-1.61-1.66-3.22-3.33-4.8-5.01C-276.1,409.11-274.5,410.77-272.89,412.43z"/>
	<path class="st0" d="M-297.42,385.17c-1.37-1.64-2.71-3.29-4.06-4.95C-300.14,381.88-298.79,383.54-297.42,385.17z"/>
	<path class="st0" d="M-265.63,419.77c-1.67-1.65-3.33-3.32-4.98-5C-268.95,416.45-267.3,418.12-265.63,419.77z"/>
	<path class="st0" d="M-238.42,444.68c-1.95-1.66-3.89-3.32-5.82-5C-242.31,441.36-240.37,443.03-238.42,444.68z"/>
	<path class="st0" d="M-245.41,438.64c-6.24-5.5-12.34-11.17-18.29-16.98C-257.75,427.47-251.65,433.13-245.41,438.64z"/>
	<path class="st0" d="M-399.62,173.36c-0.18-0.89-0.35-1.78-0.52-2.67C-399.97,171.59-399.8,172.48-399.62,173.36z"/>
	<path class="st0" d="M-396.55,187.15c-0.25-1.05-0.51-2.09-0.75-3.14C-397.06,185.06-396.8,186.1-396.55,187.15z"/>
	<path class="st0" d="M-403.61,151.28c-0.21-1.33-0.42-2.66-0.62-3.99C-404.03,148.62-403.82,149.95-403.61,151.28z"/>
	<path class="st0" d="M-401.72,162.45c-0.23-1.29-0.46-2.59-0.68-3.88C-402.18,159.86-401.96,161.16-401.72,162.45z"/>
	<path class="st0" d="M-393.66,198.73c-0.35-1.34-0.7-2.67-1.04-4.02C-394.37,196.06-394.02,197.39-393.66,198.73z"/>
	<path class="st0" d="M-390.7,209.52c-0.39-1.34-0.76-2.69-1.14-4.04C-391.46,206.83-391.09,208.17-390.7,209.52z"/>
	<path class="st0" d="M-408.04,113.79c-0.1-1.25-0.18-2.5-0.27-3.74C-408.22,111.29-408.14,112.54-408.04,113.79z"/>
	<path class="st0" d="M-409.31,90.37c-0.04-1.2-0.08-2.41-0.11-3.61C-409.39,87.97-409.34,89.17-409.31,90.37z"/>
	<path class="st0" d="M-387.55,220.04c-0.35-1.13-0.68-2.26-1.03-3.39C-388.24,217.78-387.9,218.91-387.55,220.04z"/>
	<path class="st0" d="M-405.32,139.49c-0.15-1.11-0.31-2.22-0.45-3.34C-405.62,137.27-405.47,138.38-405.32,139.49z"/>
	<path class="st0" d="M-407.03,125.04c-0.06-0.56-0.1-1.12-0.16-1.69C-407.13,123.92-407.09,124.48-407.03,125.04z"/>
	<path class="st0" d="M-408.8,102.32c-0.07-1.35-0.14-2.7-0.21-4.05C-408.94,99.63-408.87,100.98-408.8,102.32z"/>
	<path class="st1" d="M-244.24,439.68c-0.39-0.34-0.78-0.69-1.17-1.04C-245.02,438.98-244.63,439.33-244.24,439.68z"/>
	<path class="st1" d="M-408.31,110.04c-0.18-2.57-0.35-5.14-0.49-7.72C-408.66,104.9-408.49,107.48-408.31,110.04z"/>
	<path class="st1" d="M-263.7,421.65c-0.64-0.63-1.29-1.25-1.93-1.88C-264.99,420.4-264.34,421.03-263.7,421.65z"/>
	<path class="st1" d="M-270.6,414.78c-0.76-0.78-1.53-1.56-2.29-2.34C-272.13,413.22-271.37,414-270.6,414.78z"/>
	<path class="st1" d="M-277.69,407.42c-0.7-0.75-1.39-1.5-2.09-2.25C-279.09,405.92-278.39,406.68-277.69,407.42z"/>
	<path class="st1" d="M-405.76,136.15c-0.46-3.69-0.89-7.39-1.27-11.11C-406.66,128.76-406.23,132.46-405.76,136.15z"/>
	<path class="st1" d="M-407.19,123.36c-0.31-3.18-0.6-6.37-0.85-9.57C-407.79,116.99-407.5,120.18-407.19,123.36z"/>
	<path class="st1" d="M-159.62,499.17c-0.31-0.17-0.62-0.35-0.93-0.52C-160.24,498.82-159.93,498.99-159.62,499.17z"/>
	<path class="st1" d="M-236.51,446.29c-0.64-0.53-1.27-1.07-1.91-1.61C-237.78,445.22-237.15,445.76-236.51,446.29z"/>
	<path class="st1" d="M-108.02,523.87c-0.37-0.15-0.73-0.3-1.1-0.45C-108.76,523.57-108.39,523.72-108.02,523.87z"/>
	<path class="st1" d="M-117.27,519.99c-0.14-0.06-0.28-0.12-0.42-0.18C-117.55,519.87-117.41,519.93-117.27,519.99z"/>
	<path class="st1" d="M-150.97,503.84c-0.37-0.2-0.75-0.39-1.12-0.59C-151.71,503.45-151.34,503.64-150.97,503.84z"/>
	<path class="st1" d="M-409.01,98.28c-0.12-2.63-0.22-5.26-0.3-7.9C-409.22,93.01-409.13,95.65-409.01,98.28z"/>
	<path class="st1" d="M-229.04,452.44c-0.53-0.43-1.06-0.85-1.59-1.28C-230.1,451.59-229.57,452.01-229.04,452.44z"/>
	<path class="st1" d="M-409.42,86.76c-0.09-3.81-0.14-7.63-0.14-11.46C-409.56,79.13-409.5,82.95-409.42,86.76z"/>
	<path class="st1" d="M-199.45,474.51c-0.48-0.33-0.96-0.66-1.43-0.99C-200.4,473.84-199.92,474.18-199.45,474.51z"/>
	<path class="st1" d="M-191.39,479.93c-0.43-0.28-0.87-0.57-1.3-0.85C-192.25,479.36-191.82,479.65-191.39,479.93z"/>
	<path class="st1" d="M-384.29,230.09c-1.12-3.34-2.21-6.69-3.27-10.06C-386.5,223.4-385.41,226.76-384.29,230.09z"/>
	<path class="st1" d="M-362.45,283.86c-1.03-2.15-2.03-4.31-3.02-6.47C-364.48,279.55-363.48,281.71-362.45,283.86z"/>
	<path class="st1" d="M-357.73,293.46c-0.89-1.76-1.76-3.52-2.63-5.29C-359.49,289.94-358.61,291.7-357.73,293.46z"/>
	<path class="st1" d="M-391.84,205.48c-0.62-2.24-1.23-4.49-1.83-6.75C-393.07,200.99-392.46,203.24-391.84,205.48z"/>
	<path class="st1" d="M-352.75,303.02c-0.9-1.69-1.8-3.38-2.68-5.08C-354.55,299.64-353.65,301.33-352.75,303.02z"/>
	<path class="st1" d="M-394.71,194.71c-0.64-2.51-1.25-5.04-1.85-7.56C-395.96,189.68-395.35,192.2-394.71,194.71z"/>
	<path class="st1" d="M-347.26,313.02c-1.05-1.86-2.1-3.72-3.13-5.6C-349.36,309.3-348.31,311.16-347.26,313.02z"/>
	<path class="st1" d="M-376.86,250.51c-0.78-2.02-1.55-4.05-2.31-6.08C-378.42,246.47-377.65,248.49-376.86,250.51z"/>
	<path class="st1" d="M-367.22,273.59c-1.31-2.91-2.59-5.84-3.84-8.78C-369.81,267.75-368.53,270.67-367.22,273.59z"/>
	<path class="st1" d="M-372.71,260.85c-0.84-2.02-1.67-4.04-2.48-6.08C-374.38,256.8-373.55,258.82-372.71,260.85z"/>
	<path class="st1" d="M-295.12,387.9c-0.77-0.91-1.54-1.81-2.3-2.72C-296.66,386.09-295.89,386.99-295.12,387.9z"/>
	<path class="st1" d="M-388.58,216.65c-0.72-2.37-1.43-4.74-2.12-7.13C-390.01,211.9-389.3,214.28-388.58,216.65z"/>
	<path class="st1" d="M-314.23,363.84c-0.76-1.03-1.51-2.07-2.26-3.1C-315.74,361.77-314.99,362.81-314.23,363.84z"/>
	<path class="st1" d="M-402.4,158.57c-0.42-2.42-0.82-4.85-1.21-7.28C-403.23,153.72-402.82,156.15-402.4,158.57z"/>
	<path class="st1" d="M-380.7,240.32c-0.86-2.37-1.69-4.74-2.51-7.13C-382.39,235.57-381.56,237.95-380.7,240.32z"/>
	<path class="st1" d="M-307.91,372.14c-0.86-1.11-1.72-2.23-2.57-3.35C-309.63,369.91-308.78,371.03-307.91,372.14z"/>
	<path class="st1" d="M-301.48,380.23c-0.86-1.06-1.71-2.12-2.57-3.18C-303.2,378.11-302.34,379.17-301.48,380.23z"/>
	<path class="st1" d="M-404.23,147.29c-0.39-2.59-0.75-5.19-1.09-7.8C-404.97,142.1-404.61,144.7-404.23,147.29z"/>
	<path class="st1" d="M-334.66,334.07c-0.92-1.45-1.82-2.91-2.73-4.37C-336.49,331.17-335.58,332.62-334.66,334.07z"/>
	<path class="st1" d="M-340.22,325.11c-1.07-1.77-2.12-3.57-3.17-5.36C-342.34,321.54-341.29,323.33-340.22,325.11z"/>
	<path class="st1" d="M-397.3,184.01c-0.81-3.53-1.58-7.08-2.32-10.65C-398.89,176.93-398.11,180.48-397.3,184.01z"/>
	<path class="st1" d="M-400.14,170.7c-0.55-2.74-1.08-5.49-1.58-8.25C-401.22,165.21-400.69,167.96-400.14,170.7z"/>
	<path class="st1" d="M-323.07,351.52c-0.9-1.29-1.8-2.58-2.69-3.88C-324.87,348.94-323.97,350.22-323.07,351.52z"/>
	<path class="st1" d="M-328.94,342.89c-0.91-1.37-1.81-2.73-2.7-4.11C-330.75,340.16-329.84,341.53-328.94,342.89z"/>
	<path class="st1" d="M271.09,349.55l-39.5-79.82l-18.34-6.11l140.16-99.01L310.75,143l76.01-223.08l-194.98-66.1L59.58-71.82
		l-95.84-49.57l-56.18,39.66l-26.44-24.79L-312.21-128l-68.27,37.67c-18.81,51.68-29.08,107.46-29.08,165.64
		c0,3.83,0.06,7.65,0.14,11.46c0.03,1.21,0.07,2.41,0.11,3.61c0.08,2.64,0.18,5.28,0.3,7.9c0.06,1.35,0.13,2.7,0.21,4.05
		c0.14,2.58,0.31,5.15,0.49,7.72c0.09,1.25,0.17,2.5,0.27,3.74c0.25,3.2,0.54,6.39,0.85,9.57c0.06,0.56,0.1,1.13,0.16,1.69
		c0.38,3.72,0.81,7.42,1.27,11.11c0.14,1.12,0.3,2.23,0.45,3.34c0.34,2.61,0.71,5.21,1.09,7.8c0.2,1.33,0.41,2.66,0.62,3.99
		c0.38,2.44,0.79,4.86,1.21,7.28c0.22,1.29,0.44,2.59,0.68,3.88c0.5,2.76,1.03,5.51,1.58,8.25c0.18,0.89,0.34,1.78,0.52,2.67
		c0.73,3.56,1.51,7.11,2.32,10.65c0.24,1.05,0.5,2.09,0.75,3.14c0.6,2.53,1.21,5.05,1.85,7.56c0.34,1.34,0.69,2.68,1.04,4.02
		c0.59,2.26,1.2,4.51,1.83,6.75c0.38,1.35,0.75,2.69,1.14,4.04c0.69,2.39,1.4,4.76,2.12,7.13c0.34,1.13,0.68,2.27,1.03,3.39
		c1.05,3.37,2.14,6.72,3.27,10.06c0.35,1.04,0.72,2.06,1.08,3.1c0.82,2.38,1.65,4.76,2.51,7.13c0.5,1.38,1.01,2.75,1.52,4.12
		c0.76,2.03,1.53,4.06,2.31,6.08c0.55,1.42,1.11,2.84,1.67,4.25c0.81,2.03,1.64,4.06,2.48,6.08c0.55,1.32,1.09,2.65,1.65,3.96
		c1.25,2.94,2.53,5.87,3.84,8.78c0.57,1.27,1.16,2.54,1.75,3.8c1,2.16,2,4.33,3.02,6.47c0.69,1.44,1.4,2.87,2.1,4.31
		c0.87,1.77,1.74,3.53,2.63,5.29c0.76,1.5,1.52,2.99,2.29,4.48c0.88,1.7,1.78,3.39,2.68,5.08c0.79,1.47,1.56,2.94,2.36,4.4
		c1.03,1.88,2.08,3.74,3.13,5.6c1.27,2.26,2.57,4.5,3.88,6.73c1.05,1.79,2.09,3.58,3.17,5.36c0.93,1.54,1.88,3.07,2.83,4.6
		c0.9,1.46,1.81,2.92,2.73,4.37c1,1.58,2.01,3.15,3.02,4.71c0.89,1.37,1.8,2.74,2.7,4.11c1.05,1.59,2.11,3.17,3.18,4.74
		c0.89,1.3,1.79,2.59,2.69,3.88c2.16,3.1,4.35,6.17,6.57,9.22c0.76,1.03,1.5,2.08,2.26,3.1c1.23,1.66,2.49,3.3,3.75,4.95
		c0.86,1.12,1.71,2.24,2.57,3.35c1.28,1.64,2.57,3.27,3.86,4.9c0.85,1.07,1.71,2.13,2.57,3.18c1.34,1.66,2.69,3.31,4.06,4.95
		c0.76,0.91,1.53,1.82,2.3,2.72c4.98,5.88,10.09,11.64,15.34,17.28c0.7,0.75,1.39,1.5,2.09,2.25c1.59,1.68,3.19,3.35,4.8,5.01
		c0.76,0.78,1.52,1.56,2.29,2.34c1.65,1.68,3.31,3.35,4.98,5c0.64,0.63,1.28,1.25,1.93,1.88c5.95,5.81,12.05,11.48,18.29,16.98
		c0.39,0.35,0.78,0.7,1.17,1.04c1.92,1.69,3.87,3.35,5.82,5c0.63,0.54,1.27,1.08,1.91,1.61c1.95,1.64,3.91,3.26,5.89,4.87
		c0.53,0.43,1.06,0.85,1.59,1.28c9.12,7.35,18.51,14.39,28.16,21.07c0.48,0.33,0.96,0.66,1.43,0.99c2.24,1.54,4.49,3.06,6.76,4.57
		c0.43,0.29,0.86,0.57,1.3,0.85c10.03,6.61,20.31,12.85,30.84,18.71c0.31,0.17,0.62,0.35,0.93,0.52c2.5,1.38,5.01,2.74,7.53,4.08
		c0.37,0.2,0.75,0.39,1.12,0.59c10.86,5.73,21.96,11.06,33.28,15.97c0.14,0.06,0.28,0.12,0.42,0.18c2.7,1.17,5.42,2.31,8.14,3.43
		c0.37,0.15,0.73,0.3,1.1,0.45C-96.44,528.59,271.09,349.55,271.09,349.55z"/>
</g>
<g>
	<g>
		<g>
			<path class="st2" d="M400.27-92.22H-94.48c-5.16,0-9.35,4.79-9.35,10.74c0,5.93,4.18,10.74,9.35,10.74h494.75
				c5.16,0,9.34-4.81,9.34-10.74C409.61-87.43,405.43-92.22,400.27-92.22z"/>
			<path class="st2" d="M369.08-6.03h-439.3c-5.16,0-9.34,4.81-9.34,10.76c0,5.93,4.18,10.74,9.34,10.74h439.3
				c5.17,0,9.34-4.81,9.34-10.74C378.42-1.22,374.25-6.03,369.08-6.03z"/>
			<path class="st2" d="M336.14,80.17H-51.14c-5.17,0-9.35,4.81-9.35,10.74c0,5.95,4.18,10.74,9.35,10.74h261.1h126.18
				c5.16,0,9.34-4.8,9.34-10.74C345.48,84.98,341.3,80.17,336.14,80.17z"/>
			<polygon class="st2" points="-3.77,-77.86 -22.32,-75.1 2.94,149.07 22.53,153.85 			"/>
			<polygon class="st2" points="70.8,-76.24 52.14,-74.76 65.87,155.89 85.46,151.81 			"/>
			<polygon class="st2" points="127.07,-79.48 127.02,156.59 144.84,155.89 145.77,-79.48 			"/>
			<polygon class="st2" points="213.41,-80.26 178.07,159.3 198.26,151.11 231.84,-76.7 			"/>
			<polygon class="st2" points="293.8,-80.37 235.67,160.67 256.45,155.89 311.79,-74.62 			"/>
			<polygon class="st2" points="372.46,-84.24 295.63,149.07 314.03,157.95 389.94,-76.7 			"/>
		</g>
	</g>
	<g>
		<path class="st3" d="M353.42,133.13H-23.67l-75.99-244.88c-1.09,13.11-12.87,15.8-24.21,17.38l77.67,248.54
			c1.94,6.26,7.09,10.44,12.88,10.44h386.72c7.56,0,13.68-7.04,13.68-15.74C367.1,140.17,360.98,133.13,353.42,133.13z"/>
		<path class="st2" d="M-103.13-124.21c-4.41-3.91-10.46-6.34-17.16-6.34h-10.24h-166.59c-13.5,0-24.44,9.83-24.44,21.95
			c0,12.12,10.94,21.95,24.44,21.95h176.83c1.02,0,1.98-0.16,2.94-0.27c11.33-1.23,20.18-9.36,21.27-19.6
			c0.07-0.69,0.23-1.37,0.23-2.09C-95.85-114.71-98.64-120.23-103.13-124.21z"/>
	</g>
	<polygon class="st3" points="247.39,314.04 -54.74,314.04 -18.67,146.68 0.27,152.08 -29.8,291.6 247.39,291.6 	"/>
	<g>
		
			<ellipse transform="matrix(0.9993 -0.0384 0.0384 0.9993 -11.727 -1.2761)" class="st2" cx="-39.1" cy="304.83" rx="54.28" ry="54.28"/>
		<path class="st4" d="M1.6,304.83c0,22.5-18.23,40.71-40.71,40.71c-22.47,0-40.71-18.21-40.71-40.71
			c0-22.47,18.23-40.71,40.71-40.71C-16.63,264.12,1.6,282.36,1.6,304.83z"/>
	</g>
	<g>
		<path class="st2" d="M296.08,304.83c0,29.97-24.3,54.28-54.27,54.28c-29.97,0-54.28-24.3-54.28-54.28
			c0-29.97,24.3-54.28,54.28-54.28C271.78,250.55,296.08,274.85,296.08,304.83z"/>
		<path class="st4" d="M282.51,304.83c0,22.5-18.23,40.71-40.71,40.71c-22.48,0-40.71-18.21-40.71-40.71
			c0-22.47,18.23-40.71,40.71-40.71C264.28,264.12,282.51,282.36,282.51,304.83z"/>
	</g>
</g>
</svg>
